<svg width="352" height="361" viewBox="0 0 352 361" fill="none" xmlns="http://www.w3.org/2000/svg">
<g filter="url(#filter0_f_1_46)">
<ellipse cx="176" cy="180.5" rx="152" ry="156.5" fill="url(#paint0_linear_1_46)"/>
</g>
<path d="M51.8224 200.486L54.1589 199.938L58.3651 217.851L36.5582 222.971L35.4975 218.454L54.9679 213.882L51.8224 200.486Z" fill="white" fill-opacity="0.79"/>
<path d="M51.5298 182.188C51.5162 181.142 51.3223 180.174 50.948 179.283C50.5734 178.37 50.0498 177.481 49.3771 176.615L51.2803 175.31C51.6482 175.711 51.9851 176.186 52.291 176.737C52.5965 177.267 52.8601 177.85 53.0818 178.487C53.2818 179.103 53.4396 179.752 53.5552 180.433C53.692 181.114 53.7649 181.796 53.7738 182.478C53.7935 183.993 53.6089 185.382 53.22 186.646C52.8521 187.888 52.3006 188.951 51.5654 189.836C50.8088 190.72 49.8791 191.415 48.7763 191.92C47.6731 192.404 46.3963 192.655 44.9457 192.674C43.5165 192.693 42.2444 192.485 41.1293 192.052C39.9926 191.597 39.0457 190.969 38.2886 190.169C37.5098 189.347 36.9211 188.373 36.5224 187.247C36.1024 186.122 35.8835 184.877 35.8657 183.511C35.8491 182.232 36.0254 181.024 36.3946 179.888C36.7639 178.753 37.3164 177.764 38.0522 176.922C38.7666 176.081 39.6433 175.408 40.6821 174.904C41.721 174.4 42.9017 174.139 44.2242 174.122L46.464 174.093L46.6419 187.756C48.4091 187.477 49.6704 186.852 50.4258 185.882C51.181 184.891 51.549 183.659 51.5298 182.188ZM37.9456 183.484C37.9536 184.103 38.0784 184.677 38.32 185.208C38.5616 185.738 38.941 186.202 39.4582 186.601C39.9752 186.978 40.6406 187.29 41.4546 187.535C42.2682 187.759 43.2511 187.874 44.4033 187.881L44.2867 178.921C43.1775 178.936 42.2192 179.076 41.4119 179.343C40.6047 179.609 39.9478 179.959 39.4414 180.393C38.9134 180.805 38.5357 181.29 38.3083 181.848C38.0592 182.384 37.9383 182.93 37.9456 183.484Z" fill="white" fill-opacity="0.79"/>
<path d="M40.1613 161.126L39.6037 164.115L37.4017 163.704L37.9593 160.715L32.9261 159.776L33.7478 155.372L38.781 156.311L39.6907 151.435L41.8927 151.846L40.983 156.722L49.1618 158.248C49.9587 158.397 50.656 158.44 51.2535 158.378C51.834 158.291 52.3299 158.134 52.7412 157.907C53.1354 157.655 53.4536 157.345 53.6957 156.978C53.9378 156.611 54.0999 156.207 54.1821 155.767C54.2995 155.138 54.3186 154.512 54.2394 153.89C54.1392 153.263 54.011 152.729 53.8547 152.288L56.0755 151.726C56.2726 152.413 56.3998 153.186 56.4569 154.043C56.5179 154.879 56.4741 155.695 56.3254 156.492C55.8833 158.862 54.9556 160.577 53.5426 161.637C52.1295 162.697 50.3953 163.036 48.3401 162.652L40.1613 161.126Z" fill="white" fill-opacity="0.79"/>
<path d="M41.7442 133.598C42.5314 133.867 43.1763 134.223 43.6788 134.666C44.1611 135.101 44.5285 135.576 44.7809 136.091C45.013 136.599 45.1336 137.136 45.1427 137.703C45.1385 138.242 45.0536 138.755 44.8879 139.239L43.8282 138.877C44.0076 138.352 44.0018 137.809 43.8105 137.247C43.6059 136.659 43.2147 136.22 42.6367 135.933C42.6564 136.007 42.6625 136.088 42.6551 136.176C42.6402 136.351 42.5983 136.539 42.5292 136.741C42.3221 137.347 41.9275 137.776 41.3453 138.027C40.743 138.272 40.1391 138.291 39.5335 138.084C38.9279 137.877 38.4721 137.496 38.1661 136.94C37.8469 136.357 37.8046 135.723 38.0393 135.037C38.3016 134.27 38.798 133.774 39.5283 133.551C40.2385 133.32 40.9771 133.336 41.7442 133.598Z" fill="white" fill-opacity="0.79"/>
<path d="M53.8754 121.652C54.3091 121.882 54.8048 121.903 55.3627 121.715C55.9305 121.509 56.5908 121.014 57.3437 120.229L60.9364 116.519C62.0508 115.371 63.142 114.609 64.21 114.232C65.2779 113.856 66.3493 113.953 67.4241 114.521C68.1029 114.881 68.6503 115.351 69.0663 115.933C69.4635 116.506 69.6904 117.217 69.7471 118.068C69.8039 118.918 69.6665 119.908 69.3351 121.036C69.0226 122.174 68.4722 123.487 67.6839 124.977C67.2748 125.75 66.8141 126.484 66.3019 127.178C65.7996 127.854 65.2746 128.481 64.7268 129.06C64.1701 129.61 63.6246 130.094 63.0901 130.511C62.5367 130.918 62.0139 131.245 61.5215 131.491L60.4231 129.462C61.3325 128.929 62.2551 128.235 63.191 127.378C64.118 126.493 64.9557 125.344 65.704 123.929C66.4524 122.515 66.7877 121.425 66.7099 120.66C66.6321 119.895 66.3104 119.363 65.7447 119.063C65.311 118.834 64.8197 118.827 64.2708 119.044C63.703 119.25 63.0132 119.778 62.2015 120.628L58.6089 124.338C57.612 125.355 56.579 126.076 55.51 126.5C54.432 126.895 53.3274 126.793 52.196 126.194C51.5926 125.875 51.1062 125.449 50.7368 124.915C50.3585 124.353 50.1355 123.68 50.0677 122.896C49.9999 122.112 50.1017 121.212 50.3733 120.197C50.6259 119.173 51.0915 118.019 51.77 116.737C52.5982 115.172 53.5634 113.872 54.6656 112.839C55.759 111.776 56.798 110.998 57.7828 110.506L58.8811 112.535C57.9818 113.049 57.0935 113.701 56.2164 114.492C55.3204 115.273 54.4983 116.37 53.7499 117.785C53.2211 118.784 52.9872 119.614 53.0483 120.273C53.1095 120.933 53.3851 121.393 53.8754 121.652Z" fill="white" fill-opacity="0.79"/>
<path d="M98.5333 82.41L98.7778 82.2036L92.8153 69.4383L96.3605 66.4448L103.673 82.0489L98.5386 86.3843L88.7837 79.5438L88.5392 79.7502L93.6487 90.5134L88.5143 94.8488L74.3559 85.0253L77.9011 82.0318L89.4869 90.0487L89.7314 89.8422L84.4345 78.6091L88.3464 75.3059L98.5333 82.41Z" fill="white" fill-opacity="0.79"/>
<path d="M121.951 69.9772C122.568 69.6844 123.091 69.2943 123.521 68.8068C123.951 68.3193 124.253 67.7386 124.429 67.0647C124.596 66.3715 124.608 65.5749 124.464 64.675C124.339 63.7659 124.011 62.7525 123.481 61.6348C122.95 60.5171 122.372 59.6226 121.746 58.9514C121.14 58.2711 120.52 57.7862 119.886 57.4965C119.244 57.1876 118.598 57.0457 117.948 57.0706C117.299 57.0956 116.666 57.2545 116.049 57.5473C115.432 57.8401 114.909 58.2303 114.479 58.7177C114.05 59.2052 113.751 59.7955 113.584 60.4887C113.409 61.1627 113.383 61.9542 113.508 62.8633C113.651 63.7632 113.989 64.772 114.52 65.8898C115.05 67.0075 115.619 67.9065 116.225 68.5868C116.851 69.258 117.485 69.748 118.128 70.0569C118.761 70.3465 119.403 70.4789 120.052 70.4539C120.701 70.4289 121.334 70.2701 121.951 69.9772ZM115.157 55.6684C116.448 55.0553 117.72 54.6756 118.973 54.5293C120.236 54.3546 121.418 54.4312 122.518 54.7589C123.609 55.0674 124.609 55.6316 125.518 56.4517C126.437 57.2434 127.204 58.2848 127.817 59.5759C128.439 60.8864 128.766 62.1479 128.799 63.3604C128.851 64.5639 128.656 65.6955 128.215 66.7552C127.764 67.7957 127.072 68.7502 126.138 69.6187C125.233 70.4973 124.134 71.2431 122.843 71.8562C121.533 72.4784 120.251 72.8627 118.998 73.0089C117.754 73.1745 116.587 73.103 115.496 72.7945C114.395 72.4668 113.386 71.9071 112.467 71.1155C111.567 70.3147 110.806 69.2591 110.183 67.9486C109.57 66.6574 109.238 65.4101 109.186 64.2067C109.144 62.9749 109.349 61.8387 109.799 60.7982C110.241 59.7384 110.919 58.7789 111.833 57.9196C112.739 57.041 113.846 56.2906 115.157 55.6684Z" fill="white" fill-opacity="0.79"/>
<path d="M148.66 47.3787L144.935 48.3132C143.528 48.6663 142.548 49.319 141.995 50.2715C141.437 51.2034 141.345 52.4142 141.719 53.904L144.094 63.3706L139.749 64.4608L137.374 54.9943C136.844 52.8837 137.096 51.0829 138.13 49.5919C139.179 48.075 140.955 47.0024 143.459 46.3742L148.115 45.206L148.66 47.3787Z" fill="white" fill-opacity="0.79"/>
<path d="M167.48 52.2198L164.126 52.4092L164.541 59.7575L160.068 60.0102L158.805 37.6458L163.277 37.3932L163.999 50.1728L167.354 49.9833L171.909 42.6748L176.701 42.4042L171.561 50.7072L177.959 58.9996L172.847 59.2883L167.48 52.2198Z" fill="white" fill-opacity="0.79"/>
<path d="M207.49 48.7381L204.563 47.9154L205.169 45.759L208.096 46.5817L209.482 41.6527L213.794 42.8651L212.409 47.7941L217.184 49.1364L216.577 51.2928L211.803 49.9505L209.551 57.96C209.332 58.7404 209.226 59.431 209.235 60.0317C209.269 60.6176 209.381 61.1256 209.571 61.5555C209.786 61.9707 210.066 62.3153 210.41 62.5893C210.754 62.8633 211.142 63.0609 211.573 63.1822C212.189 63.3554 212.811 63.4304 213.438 63.4072C214.071 63.3635 214.614 63.2835 215.068 63.1673L215.429 65.4295C214.726 65.5643 213.945 65.6219 213.087 65.6021C212.249 65.5881 211.439 65.4714 210.659 65.252C208.338 64.5996 206.713 63.5223 205.784 62.02C204.854 60.5177 204.672 58.7603 205.238 56.7476L207.49 48.7381Z" fill="white" fill-opacity="0.79"/>
<path d="M231.476 71.4769C232.083 71.7894 232.711 71.9686 233.359 72.0145C234.007 72.0604 234.653 71.9488 235.295 71.6798C235.947 71.3917 236.587 70.9175 237.215 70.2571C237.862 69.6065 238.469 68.7311 239.036 67.6311C239.602 66.531 239.962 65.5287 240.116 64.6241C240.289 63.7293 240.298 62.9423 240.144 62.263C240 61.5648 239.721 60.9651 239.307 60.4641C238.893 59.963 238.383 59.5562 237.776 59.2437C237.169 58.9311 236.541 58.7519 235.893 58.706C235.245 58.6601 234.595 58.7812 233.942 59.0692C233.3 59.3383 232.655 59.7981 232.008 60.4488C231.38 61.1092 230.783 61.9894 230.216 63.0895C229.65 64.1895 229.28 65.1869 229.107 66.0818C228.954 66.9863 228.949 67.7877 229.093 68.486C229.247 69.1652 229.531 69.7554 229.945 70.2565C230.359 70.7575 230.869 71.1643 231.476 71.4769ZM238.728 57.3944C239.999 58.0488 241.073 58.8297 241.949 59.737C242.854 60.6351 243.511 61.6209 243.918 62.6943C244.334 63.7488 244.493 64.8861 244.392 66.1062C244.321 67.3171 243.958 68.5579 243.303 69.8286C242.639 71.1183 241.835 72.144 240.891 72.9056C239.966 73.677 238.948 74.2087 237.838 74.5008C236.737 74.774 235.558 74.8029 234.302 74.5875C233.054 74.401 231.795 73.9805 230.524 73.3261C229.234 72.6619 228.151 71.8762 227.275 70.9689C226.388 70.0806 225.737 69.1091 225.32 68.0547C224.913 66.9812 224.745 65.839 224.817 64.6281C224.907 63.427 225.285 62.1816 225.949 60.8919C226.603 59.6212 227.393 58.6001 228.318 57.8287C229.272 57.0482 230.299 56.5213 231.4 56.2482C232.51 55.9561 233.684 55.9128 234.922 56.1183C236.17 56.3049 237.438 56.7303 238.728 57.3944Z" fill="white" fill-opacity="0.79"/>
<path d="M262.974 76.9242C261.796 75.938 260.556 75.5252 259.252 75.6859C257.979 75.8439 256.719 76.6671 255.473 78.1554C254.226 79.6437 253.63 81.0367 253.684 82.3342C253.769 83.6292 254.399 84.7697 255.577 85.7559L258.644 88.3242L266.04 79.4925L262.974 76.9242ZM260.434 93.1633C259.791 93.932 259.061 94.5038 258.246 94.8788C257.418 95.2701 256.517 95.4481 255.545 95.413C254.589 95.3915 253.567 95.1336 252.478 94.6392C251.406 94.1586 250.289 93.432 249.128 92.4595C248.735 92.1307 248.338 91.7419 247.934 91.2929C247.534 90.874 247.16 90.4074 246.811 89.893C246.449 89.395 246.129 88.863 245.852 88.2969C245.578 87.7608 245.363 87.2195 245.209 86.6728L247.3 85.92C247.541 86.7618 247.924 87.5836 248.45 88.3852C248.961 89.2032 249.585 89.9203 250.321 90.5367C251.547 91.564 252.721 92.0736 253.841 92.0654C254.961 92.0573 256.014 91.4644 257 90.2868L257.205 90.0415L254.139 87.4732C253.01 86.5281 252.103 85.518 251.418 84.4428C250.748 83.3813 250.312 82.3068 250.11 81.2192C249.908 80.1316 249.942 79.0609 250.212 78.0072C250.499 76.9673 251.026 75.9893 251.793 75.0734C252.56 74.1576 253.43 73.4673 254.404 73.0026C255.394 72.5516 256.442 72.3302 257.548 72.3384C258.654 72.3466 259.789 72.587 260.951 73.0597C262.13 73.5461 263.283 74.2618 264.412 75.2069L270.913 80.6517L260.434 93.1633Z" fill="white" fill-opacity="0.79"/>
<path d="M273.711 106.655C274.349 107.483 275.085 108.142 275.919 108.631C276.766 109.136 277.718 109.534 278.775 109.824L278.035 112.009C277.5 111.909 276.945 111.731 276.37 111.473C275.808 111.233 275.248 110.924 274.688 110.547C274.159 110.174 273.643 109.749 273.143 109.273C272.625 108.81 272.158 108.308 271.741 107.767C270.817 106.567 270.132 105.345 269.686 104.1C269.235 102.885 269.039 101.704 269.097 100.555C269.173 99.3934 269.5 98.2799 270.08 97.2145C270.673 96.1659 271.544 95.1993 272.693 94.3145C273.826 93.4427 274.969 92.846 276.121 92.5244C277.303 92.2067 278.438 92.1413 279.524 92.3283C280.64 92.5192 281.695 92.9456 282.689 93.6073C283.699 94.2561 284.621 95.1215 285.454 96.2035C286.235 97.2178 286.818 98.2901 287.203 99.4203C287.588 100.551 287.739 101.673 287.655 102.788C287.587 103.889 287.289 104.954 286.76 105.98C286.231 107.006 285.442 107.923 284.394 108.73L282.619 110.096L274.285 99.2678C273.038 100.551 272.403 101.807 272.38 103.036C272.37 104.282 272.814 105.488 273.711 106.655ZM283.806 97.4721C283.428 96.9818 282.984 96.597 282.473 96.3174C281.962 96.0379 281.379 95.8937 280.727 95.8848C280.087 95.8928 279.367 96.0426 278.569 96.3341C277.783 96.6426 276.927 97.1397 276.002 97.8255L281.467 104.926C282.346 104.249 283.028 103.562 283.515 102.865C284.001 102.168 284.317 101.494 284.462 100.843C284.638 100.197 284.649 99.5823 284.497 98.9996C284.374 98.4208 284.144 97.9117 283.806 97.4721Z" fill="white" fill-opacity="0.79"/>
<path d="M295.438 116.694L294.092 113.968L296.101 112.977L297.446 115.703L302.038 113.437L304.02 117.454L299.429 119.72L301.625 124.168L299.616 125.159L297.421 120.712L289.96 124.394C289.233 124.753 288.649 125.136 288.208 125.544C287.796 125.962 287.493 126.385 287.3 126.813C287.135 127.251 287.066 127.69 287.093 128.129C287.119 128.568 287.231 128.988 287.43 129.39C287.713 129.964 288.073 130.476 288.509 130.927C288.965 131.368 289.388 131.719 289.778 131.978L288.337 133.76C287.767 133.327 287.202 132.785 286.643 132.134C286.093 131.501 285.638 130.821 285.279 130.095C284.212 127.933 283.927 126.004 284.422 124.308C284.917 122.613 286.102 121.302 287.977 120.377L295.438 116.694Z" fill="white" fill-opacity="0.79"/>
<path d="M295.412 158.456L294.256 154.128L303.995 151.526C305.479 151.13 306.441 150.475 306.882 149.563C307.343 148.645 307.386 147.485 307.012 146.083L305.938 142.064L292.026 145.78L290.87 141.452L312.511 135.671L313.667 139.999L308.103 141.486L309.176 145.505C309.963 148.452 310.008 150.77 309.311 152.458C308.64 154.161 307.253 155.293 305.151 155.855L295.412 158.456Z" fill="white" fill-opacity="0.79"/>
<path d="M298.786 176.891C298.831 177.935 299.054 178.897 299.456 179.777C299.858 180.677 300.408 181.55 301.107 182.395L299.244 183.758C298.864 183.368 298.513 182.903 298.191 182.362C297.869 181.842 297.588 181.267 297.347 180.637C297.128 180.027 296.951 179.384 296.815 178.706C296.657 178.03 296.564 177.35 296.534 176.668C296.468 175.155 296.611 173.761 296.961 172.486C297.291 171.233 297.81 170.154 298.518 169.247C299.247 168.34 300.155 167.617 301.242 167.079C302.33 166.562 303.599 166.272 305.048 166.209C306.476 166.147 307.754 166.316 308.882 166.715C310.032 167.135 310.997 167.734 311.778 168.511C312.582 169.309 313.2 170.265 313.633 171.378C314.087 172.49 314.343 173.728 314.402 175.092C314.458 176.37 314.318 177.583 313.984 178.729C313.649 179.875 313.127 180.88 312.417 181.744C311.729 182.607 310.873 183.306 309.85 183.841C308.827 184.377 307.655 184.673 306.333 184.731L304.095 184.828L303.502 171.177C301.744 171.509 300.503 172.172 299.777 173.164C299.052 174.178 298.722 175.42 298.786 176.891ZM312.324 175.182C312.298 174.564 312.155 173.993 311.898 173.471C311.64 172.948 311.247 172.495 310.718 172.113C310.19 171.751 309.515 171.46 308.694 171.24C307.874 171.04 306.888 170.955 305.736 170.984L306.125 179.935C307.233 179.887 308.187 179.718 308.985 179.427C309.784 179.136 310.43 178.766 310.923 178.318C311.438 177.89 311.801 177.393 312.012 176.829C312.244 176.285 312.348 175.736 312.324 175.182Z" fill="white" fill-opacity="0.79"/>
<path d="M309.104 208.619L309.678 204.822C309.895 203.388 309.671 202.232 309.005 201.355C308.361 200.481 307.279 199.929 305.76 199.699L296.11 198.24L296.779 193.81L306.43 195.269C308.581 195.595 310.146 196.522 311.123 198.05C312.118 199.603 312.422 201.656 312.037 204.208L311.319 208.954L309.104 208.619Z" fill="white" fill-opacity="0.79"/>
<path d="M293.586 218.87C292.973 218.689 292.494 218.314 292.15 217.745C291.821 217.203 291.759 216.584 291.964 215.889C292.169 215.193 292.561 214.697 293.138 214.4C293.729 214.13 294.332 214.085 294.945 214.266C295.559 214.448 296.031 214.809 296.36 215.351C296.704 215.92 296.773 216.552 296.568 217.248C296.368 217.923 295.97 218.406 295.372 218.697C294.796 218.993 294.2 219.051 293.586 218.87Z" fill="white" fill-opacity="0.79"/>
<defs>
<filter id="filter0_f_1_46" x="0" y="0" width="352" height="361" filterUnits="userSpaceOnUse" color-interpolation-filters="sRGB">
<feFlood flood-opacity="0" result="BackgroundImageFix"/>
<feBlend mode="normal" in="SourceGraphic" in2="BackgroundImageFix" result="shape"/>
<feGaussianBlur stdDeviation="12" result="effect1_foregroundBlur_1_46"/>
</filter>
<linearGradient id="paint0_linear_1_46" x1="176" y1="24" x2="176" y2="337" gradientUnits="userSpaceOnUse">
<stop stop-color="#AD00FF"/>
<stop offset="0.494792" stop-color="#D6009F" stop-opacity="0.505208"/>
<stop offset="1" stop-color="#FFB800" stop-opacity="0.35"/>
</linearGradient>
</defs>
</svg>
