<svg width="352" height="361" viewBox="0 0 352 361" fill="none" xmlns="http://www.w3.org/2000/svg">
<g filter="url(#filter0_f_1_46)">
<ellipse cx="176" cy="180.5" rx="152" ry="156.5" fill="#E815B7"/>
</g>
<path d="M51.8224 195.486L54.1589 194.938L58.3651 212.851L36.5582 217.971L35.4975 213.454L54.9679 208.882L51.8224 195.486Z" fill="white" fill-opacity="0.79"/>
<path d="M51.5298 177.188C51.5162 176.142 51.3223 175.174 50.948 174.283C50.5734 173.37 50.0498 172.481 49.3771 171.615L51.2803 170.31C51.6482 170.711 51.9851 171.186 52.291 171.737C52.5965 172.267 52.8601 172.85 53.0818 173.487C53.2818 174.103 53.4396 174.752 53.5552 175.433C53.692 176.114 53.7649 176.796 53.7738 177.478C53.7935 178.993 53.6089 180.382 53.22 181.646C52.8521 182.888 52.3006 183.951 51.5654 184.836C50.8088 185.72 49.8791 186.415 48.7763 186.92C47.6731 187.404 46.3963 187.655 44.9457 187.674C43.5165 187.693 42.2444 187.485 41.1293 187.052C39.9926 186.597 39.0457 185.969 38.2886 185.169C37.5098 184.347 36.9211 183.373 36.5224 182.247C36.1024 181.122 35.8835 179.877 35.8657 178.511C35.8491 177.232 36.0254 176.024 36.3946 174.888C36.7639 173.753 37.3164 172.764 38.0522 171.922C38.7666 171.081 39.6433 170.408 40.6821 169.904C41.721 169.4 42.9017 169.139 44.2242 169.122L46.464 169.093L46.6419 182.756C48.4091 182.477 49.6704 181.852 50.4258 180.882C51.181 179.891 51.549 178.659 51.5298 177.188ZM37.9456 178.484C37.9536 179.103 38.0784 179.677 38.32 180.208C38.5616 180.738 38.941 181.202 39.4582 181.601C39.9752 181.978 40.6406 182.29 41.4546 182.535C42.2682 182.759 43.2511 182.874 44.4033 182.881L44.2867 173.921C43.1775 173.936 42.2192 174.076 41.4119 174.343C40.6047 174.609 39.9478 174.959 39.4414 175.393C38.9134 175.805 38.5357 176.29 38.3083 176.848C38.0592 177.384 37.9383 177.93 37.9456 178.484Z" fill="white" fill-opacity="0.79"/>
<path d="M40.1613 156.126L39.6037 159.115L37.4017 158.704L37.9593 155.715L32.9261 154.776L33.7478 150.372L38.781 151.311L39.6907 146.435L41.8927 146.846L40.983 151.722L49.1618 153.248C49.9587 153.397 50.656 153.44 51.2535 153.378C51.834 153.291 52.3299 153.134 52.7412 152.907C53.1354 152.655 53.4536 152.345 53.6957 151.978C53.9378 151.611 54.0999 151.207 54.1821 150.767C54.2995 150.138 54.3186 149.512 54.2394 148.89C54.1392 148.263 54.011 147.729 53.8547 147.288L56.0755 146.726C56.2726 147.413 56.3998 148.186 56.4569 149.043C56.5179 149.879 56.4741 150.695 56.3254 151.492C55.8833 153.862 54.9556 155.577 53.5426 156.637C52.1295 157.697 50.3953 158.036 48.3401 157.652L40.1613 156.126Z" fill="white" fill-opacity="0.79"/>
<path d="M41.7442 128.598C42.5314 128.867 43.1763 129.223 43.6788 129.666C44.1611 130.101 44.5285 130.576 44.7809 131.091C45.013 131.599 45.1336 132.136 45.1427 132.703C45.1385 133.242 45.0536 133.755 44.8879 134.239L43.8282 133.877C44.0076 133.352 44.0018 132.809 43.8105 132.247C43.6059 131.659 43.2147 131.22 42.6367 130.933C42.6564 131.007 42.6625 131.088 42.6551 131.176C42.6402 131.351 42.5983 131.539 42.5292 131.741C42.3221 132.347 41.9275 132.776 41.3453 133.027C40.743 133.272 40.1391 133.291 39.5335 133.084C38.9279 132.877 38.4721 132.496 38.1661 131.94C37.8469 131.357 37.8046 130.723 38.0393 130.037C38.3016 129.27 38.798 128.774 39.5283 128.551C40.2385 128.32 40.9771 128.336 41.7442 128.598Z" fill="white" fill-opacity="0.79"/>
<path d="M53.8754 116.652C54.3091 116.882 54.8048 116.903 55.3627 116.715C55.9305 116.509 56.5908 116.014 57.3437 115.229L60.9364 111.519C62.0508 110.371 63.142 109.609 64.21 109.232C65.2779 108.856 66.3493 108.953 67.4241 109.521C68.1029 109.881 68.6503 110.351 69.0663 110.933C69.4635 111.506 69.6904 112.217 69.7471 113.068C69.8039 113.918 69.6665 114.908 69.3351 116.036C69.0226 117.174 68.4722 118.487 67.6839 119.977C67.2748 120.75 66.8141 121.484 66.3019 122.178C65.7996 122.854 65.2746 123.481 64.7268 124.06C64.1701 124.61 63.6246 125.094 63.0901 125.511C62.5367 125.918 62.0139 126.245 61.5215 126.491L60.4231 124.462C61.3325 123.929 62.2551 123.235 63.191 122.378C64.118 121.493 64.9557 120.344 65.704 118.929C66.4524 117.515 66.7877 116.425 66.7099 115.66C66.6321 114.895 66.3104 114.363 65.7447 114.063C65.311 113.834 64.8197 113.827 64.2708 114.044C63.703 114.25 63.0132 114.778 62.2015 115.628L58.6089 119.338C57.612 120.355 56.579 121.076 55.51 121.5C54.432 121.895 53.3274 121.793 52.196 121.194C51.5926 120.875 51.1062 120.449 50.7368 119.915C50.3585 119.353 50.1355 118.68 50.0677 117.896C49.9999 117.112 50.1017 116.212 50.3733 115.197C50.6259 114.173 51.0915 113.019 51.77 111.737C52.5982 110.172 53.5634 108.872 54.6656 107.839C55.759 106.776 56.798 105.998 57.7828 105.506L58.8811 107.535C57.9818 108.049 57.0935 108.701 56.2164 109.492C55.3204 110.273 54.4983 111.37 53.7499 112.785C53.2211 113.784 52.9872 114.614 53.0483 115.273C53.1095 115.933 53.3851 116.393 53.8754 116.652Z" fill="white" fill-opacity="0.79"/>
<path d="M98.5333 77.41L98.7778 77.2036L92.8153 64.4383L96.3605 61.4448L103.673 77.0489L98.5386 81.3843L88.7837 74.5438L88.5392 74.7502L93.6487 85.5133L88.5143 89.8488L74.3559 80.0253L77.9011 77.0318L89.4869 85.0487L89.7314 84.8422L84.4345 73.6091L88.3464 70.3059L98.5333 77.41Z" fill="white" fill-opacity="0.79"/>
<path d="M121.951 64.9772C122.568 64.6844 123.091 64.2943 123.521 63.8068C123.951 63.3193 124.253 62.7386 124.429 62.0647C124.596 61.3715 124.608 60.5749 124.464 59.675C124.339 58.7659 124.011 57.7525 123.481 56.6348C122.95 55.5171 122.372 54.6226 121.746 53.9514C121.14 53.2711 120.52 52.7862 119.886 52.4965C119.244 52.1876 118.598 52.0457 117.948 52.0706C117.299 52.0956 116.666 52.2545 116.049 52.5473C115.432 52.8401 114.909 53.2303 114.479 53.7177C114.05 54.2052 113.751 54.7955 113.584 55.4887C113.409 56.1627 113.383 56.9542 113.508 57.8633C113.651 58.7632 113.989 59.772 114.52 60.8898C115.05 62.0075 115.619 62.9065 116.225 63.5868C116.851 64.258 117.485 64.748 118.128 65.0569C118.761 65.3465 119.403 65.4789 120.052 65.4539C120.701 65.4289 121.334 65.2701 121.951 64.9772ZM115.157 50.6684C116.448 50.0553 117.72 49.6756 118.973 49.5293C120.236 49.3546 121.418 49.4312 122.518 49.7589C123.609 50.0674 124.609 50.6316 125.518 51.4517C126.437 52.2434 127.204 53.2848 127.817 54.5759C128.439 55.8864 128.766 57.1479 128.799 58.3604C128.851 59.5639 128.656 60.6955 128.215 61.7552C127.764 62.7957 127.072 63.7502 126.138 64.6187C125.233 65.4973 124.134 66.2431 122.843 66.8562C121.533 67.4784 120.251 67.8627 118.998 68.0089C117.754 68.1745 116.587 68.103 115.496 67.7945C114.395 67.4668 113.386 66.9071 112.467 66.1155C111.567 65.3147 110.806 64.2591 110.183 62.9486C109.57 61.6574 109.238 60.4101 109.186 59.2067C109.144 57.9749 109.349 56.8387 109.799 55.7982C110.241 54.7384 110.919 53.7789 111.833 52.9196C112.739 52.041 113.846 51.2906 115.157 50.6684Z" fill="white" fill-opacity="0.79"/>
<path d="M148.66 42.3787L144.935 43.3132C143.528 43.6663 142.548 44.319 141.995 45.2715C141.437 46.2034 141.345 47.4142 141.719 48.904L144.094 58.3706L139.749 59.4608L137.374 49.9943C136.844 47.8837 137.096 46.0829 138.13 44.5919C139.179 43.075 140.955 42.0024 143.459 41.3742L148.115 40.206L148.66 42.3787Z" fill="white" fill-opacity="0.79"/>
<path d="M167.48 47.2198L164.126 47.4092L164.541 54.7575L160.068 55.0102L158.805 32.6458L163.277 32.3932L163.999 45.1728L167.354 44.9833L171.909 37.6748L176.701 37.4042L171.561 45.7072L177.959 53.9996L172.847 54.2883L167.48 47.2198Z" fill="white" fill-opacity="0.79"/>
<path d="M207.49 43.7381L204.563 42.9154L205.169 40.759L208.096 41.5817L209.482 36.6527L213.794 37.8651L212.409 42.7941L217.184 44.1364L216.577 46.2928L211.803 44.9505L209.551 52.96C209.332 53.7404 209.226 54.431 209.235 55.0317C209.269 55.6176 209.381 56.1256 209.571 56.5555C209.786 56.9707 210.066 57.3153 210.41 57.5893C210.754 57.8633 211.142 58.0609 211.573 58.1822C212.189 58.3554 212.811 58.4304 213.438 58.4072C214.071 58.3635 214.614 58.2835 215.068 58.1673L215.429 60.4295C214.726 60.5643 213.945 60.6219 213.087 60.6021C212.249 60.5881 211.439 60.4714 210.659 60.252C208.338 59.5996 206.713 58.5223 205.784 57.02C204.854 55.5177 204.672 53.7603 205.238 51.7476L207.49 43.7381Z" fill="white" fill-opacity="0.79"/>
<path d="M231.476 66.4769C232.083 66.7894 232.711 66.9686 233.359 67.0145C234.007 67.0604 234.653 66.9488 235.295 66.6798C235.947 66.3917 236.587 65.9175 237.215 65.2571C237.862 64.6065 238.469 63.7311 239.036 62.6311C239.602 61.531 239.962 60.5287 240.116 59.6241C240.289 58.7293 240.298 57.9423 240.144 57.263C240 56.5648 239.721 55.9651 239.307 55.4641C238.893 54.963 238.383 54.5562 237.776 54.2437C237.169 53.9311 236.541 53.7519 235.893 53.706C235.245 53.6601 234.595 53.7812 233.942 54.0692C233.3 54.3383 232.655 54.7981 232.008 55.4488C231.38 56.1092 230.783 56.9894 230.216 58.0895C229.65 59.1895 229.28 60.1869 229.107 61.0818C228.954 61.9863 228.949 62.7877 229.093 63.486C229.247 64.1652 229.531 64.7554 229.945 65.2565C230.359 65.7575 230.869 66.1643 231.476 66.4769ZM238.728 52.3944C239.999 53.0488 241.073 53.8297 241.949 54.737C242.854 55.6351 243.511 56.6209 243.918 57.6943C244.334 58.7488 244.493 59.8861 244.392 61.1062C244.321 62.3171 243.958 63.5579 243.303 64.8286C242.639 66.1183 241.835 67.144 240.891 67.9056C239.966 68.677 238.948 69.2087 237.838 69.5008C236.737 69.774 235.558 69.8029 234.302 69.5875C233.054 69.401 231.795 68.9805 230.524 68.3261C229.234 67.6619 228.151 66.8762 227.275 65.9689C226.388 65.0806 225.737 64.1091 225.32 63.0547C224.913 61.9812 224.745 60.839 224.817 59.6281C224.907 58.427 225.285 57.1816 225.949 55.8919C226.603 54.6212 227.393 53.6001 228.318 52.8287C229.272 52.0482 230.299 51.5213 231.4 51.2482C232.51 50.9561 233.684 50.9128 234.922 51.1183C236.17 51.3049 237.438 51.7303 238.728 52.3944Z" fill="white" fill-opacity="0.79"/>
<path d="M262.974 71.9242C261.796 70.938 260.556 70.5252 259.252 70.6859C257.979 70.8439 256.719 71.6671 255.473 73.1554C254.226 74.6437 253.63 76.0367 253.684 77.3342C253.769 78.6292 254.399 79.7697 255.577 80.7559L258.644 83.3242L266.04 74.4925L262.974 71.9242ZM260.434 88.1633C259.791 88.932 259.061 89.5038 258.246 89.8788C257.418 90.2701 256.517 90.4481 255.545 90.413C254.589 90.3915 253.567 90.1336 252.478 89.6392C251.406 89.1586 250.289 88.432 249.128 87.4595C248.735 87.1307 248.338 86.7419 247.934 86.2929C247.534 85.874 247.16 85.4074 246.811 84.893C246.449 84.395 246.129 83.863 245.852 83.2969C245.578 82.7608 245.363 82.2195 245.209 81.6728L247.3 80.92C247.541 81.7618 247.924 82.5836 248.45 83.3852C248.961 84.2032 249.585 84.9203 250.321 85.5367C251.547 86.564 252.721 87.0736 253.841 87.0654C254.961 87.0573 256.014 86.4644 257 85.2868L257.205 85.0415L254.139 82.4732C253.01 81.5281 252.103 80.518 251.418 79.4428C250.748 78.3813 250.312 77.3068 250.11 76.2192C249.908 75.1316 249.942 74.0609 250.212 73.0072C250.499 71.9673 251.026 70.9893 251.793 70.0734C252.56 69.1576 253.43 68.4673 254.404 68.0026C255.394 67.5516 256.442 67.3302 257.548 67.3384C258.654 67.3466 259.789 67.587 260.951 68.0597C262.13 68.5461 263.283 69.2618 264.412 70.2069L270.913 75.6517L260.434 88.1633Z" fill="white" fill-opacity="0.79"/>
<path d="M273.711 101.655C274.349 102.483 275.085 103.142 275.919 103.631C276.766 104.136 277.718 104.534 278.775 104.824L278.035 107.009C277.5 106.909 276.945 106.731 276.37 106.473C275.808 106.233 275.248 105.924 274.688 105.547C274.159 105.174 273.643 104.749 273.143 104.273C272.625 103.81 272.158 103.308 271.741 102.767C270.817 101.567 270.132 100.345 269.686 99.0999C269.235 97.8852 269.039 96.7035 269.097 95.555C269.173 94.3934 269.5 93.2799 270.08 92.2145C270.673 91.1659 271.544 90.1993 272.693 89.3145C273.826 88.4427 274.969 87.846 276.121 87.5244C277.303 87.2067 278.438 87.1413 279.524 87.3283C280.64 87.5192 281.695 87.9456 282.689 88.6073C283.699 89.2561 284.621 90.1215 285.454 91.2035C286.235 92.2178 286.818 93.2901 287.203 94.4203C287.588 95.5505 287.739 96.673 287.655 97.7877C287.587 98.8894 287.289 99.9535 286.76 100.98C286.231 102.006 285.442 102.923 284.394 103.73L282.619 105.096L274.285 94.2678C273.038 95.5507 272.403 96.8067 272.38 98.0359C272.37 99.2819 272.814 100.488 273.711 101.655ZM283.806 92.4721C283.428 91.9818 282.984 91.597 282.473 91.3174C281.962 91.0379 281.379 90.8937 280.727 90.8848C280.087 90.8928 279.367 91.0426 278.569 91.3341C277.783 91.6426 276.927 92.1397 276.002 92.8255L281.467 99.9259C282.346 99.2492 283.028 98.5623 283.515 97.865C284.001 97.1676 284.317 96.4938 284.462 95.8434C284.638 95.1969 284.649 94.5823 284.497 93.9996C284.374 93.4208 284.144 92.9117 283.806 92.4721Z" fill="white" fill-opacity="0.79"/>
<path d="M295.438 111.694L294.092 108.968L296.101 107.977L297.446 110.703L302.038 108.437L304.02 112.454L299.429 114.72L301.625 119.168L299.616 120.159L297.421 115.712L289.96 119.394C289.233 119.753 288.649 120.136 288.208 120.544C287.796 120.962 287.493 121.385 287.3 121.813C287.135 122.251 287.066 122.69 287.093 123.129C287.119 123.568 287.231 123.988 287.43 124.39C287.713 124.964 288.073 125.476 288.509 125.927C288.965 126.368 289.388 126.719 289.778 126.978L288.337 128.76C287.767 128.327 287.202 127.785 286.643 127.134C286.093 126.501 285.638 125.821 285.279 125.095C284.212 122.933 283.927 121.004 284.422 119.308C284.917 117.613 286.102 116.302 287.977 115.377L295.438 111.694Z" fill="white" fill-opacity="0.79"/>
<path d="M295.412 153.456L294.256 149.128L303.995 146.526C305.479 146.13 306.441 145.475 306.882 144.563C307.343 143.645 307.386 142.485 307.012 141.083L305.938 137.064L292.026 140.78L290.87 136.452L312.511 130.671L313.667 134.999L308.103 136.486L309.176 140.505C309.963 143.452 310.008 145.77 309.311 147.458C308.64 149.161 307.253 150.293 305.151 150.855L295.412 153.456Z" fill="white" fill-opacity="0.79"/>
<path d="M298.786 171.891C298.831 172.935 299.054 173.897 299.456 174.777C299.858 175.677 300.408 176.55 301.107 177.395L299.244 178.758C298.864 178.368 298.513 177.903 298.191 177.362C297.869 176.842 297.588 176.267 297.347 175.637C297.128 175.027 296.951 174.384 296.815 173.706C296.657 173.03 296.564 172.35 296.534 171.668C296.468 170.155 296.611 168.761 296.961 167.486C297.291 166.233 297.81 165.154 298.518 164.247C299.247 163.34 300.155 162.617 301.242 162.079C302.33 161.562 303.599 161.272 305.048 161.209C306.476 161.147 307.754 161.316 308.882 161.715C310.032 162.135 310.997 162.734 311.778 163.511C312.582 164.309 313.2 165.265 313.633 166.378C314.087 167.49 314.343 168.728 314.402 170.092C314.458 171.37 314.318 172.583 313.984 173.729C313.649 174.875 313.127 175.88 312.417 176.744C311.729 177.607 310.873 178.306 309.85 178.841C308.827 179.377 307.655 179.673 306.333 179.731L304.095 179.828L303.502 166.177C301.744 166.509 300.503 167.172 299.777 168.164C299.052 169.178 298.722 170.42 298.786 171.891ZM312.324 170.182C312.298 169.564 312.155 168.993 311.898 168.471C311.64 167.948 311.247 167.495 310.718 167.113C310.19 166.751 309.515 166.46 308.694 166.24C307.874 166.04 306.888 165.955 305.736 165.984L306.125 174.935C307.233 174.887 308.187 174.718 308.985 174.427C309.784 174.136 310.43 173.766 310.923 173.318C311.438 172.89 311.801 172.393 312.012 171.829C312.244 171.285 312.348 170.736 312.324 170.182Z" fill="white" fill-opacity="0.79"/>
<path d="M309.104 203.619L309.678 199.822C309.895 198.388 309.671 197.232 309.005 196.355C308.361 195.481 307.279 194.929 305.76 194.699L296.11 193.24L296.779 188.81L306.43 190.269C308.581 190.595 310.146 191.522 311.123 193.05C312.118 194.603 312.422 196.656 312.037 199.208L311.319 203.954L309.104 203.619Z" fill="white" fill-opacity="0.79"/>
<path d="M293.586 213.87C292.973 213.689 292.494 213.314 292.15 212.745C291.821 212.203 291.759 211.584 291.964 210.889C292.169 210.193 292.561 209.697 293.138 209.4C293.729 209.13 294.332 209.085 294.945 209.266C295.559 209.448 296.031 209.809 296.36 210.351C296.704 210.92 296.773 211.552 296.568 212.248C296.368 212.923 295.97 213.406 295.372 213.697C294.796 213.993 294.2 214.051 293.586 213.87Z" fill="white" fill-opacity="0.79"/>
<defs>
<filter id="filter0_f_1_46" x="0" y="0" width="352" height="361" filterUnits="userSpaceOnUse" color-interpolation-filters="sRGB">
<feFlood flood-opacity="0" result="BackgroundImageFix"/>
<feBlend mode="normal" in="SourceGraphic" in2="BackgroundImageFix" result="shape"/>
<feGaussianBlur stdDeviation="12" result="effect1_foregroundBlur_1_46"/>
</filter>
</defs>
</svg>
